<svg width="47" height="48" viewBox="0 0 47 48" fill="none" xmlns="http://www.w3.org/2000/svg">
<rect x="0.125" y="0.625" width="46.75" height="46.75" rx="8.65741" fill="#FDFDFD"/>
<path d="M20.2262 29.5554C20.0845 29.0061 19.7982 28.5049 19.3971 28.1037C18.996 27.7026 18.4947 27.4163 17.9454 27.2746L8.20801 24.7637C8.04188 24.7165 7.89566 24.6165 7.79155 24.4787C7.68743 24.3409 7.6311 24.1729 7.6311 24.0002C7.6311 23.8275 7.68743 23.6596 7.79155 23.5218C7.89566 23.384 8.04188 23.284 8.20801 23.2368L17.9454 20.7243C18.4945 20.5827 18.9957 20.2966 19.3968 19.8958C19.7979 19.495 20.0843 18.9941 20.2262 18.4451L22.7372 8.70765C22.7838 8.54087 22.8838 8.39393 23.0218 8.28926C23.1598 8.18459 23.3282 8.12793 23.5014 8.12793C23.6746 8.12793 23.843 8.18459 23.981 8.28926C24.119 8.39393 24.2189 8.54087 24.2656 8.70765L26.775 18.4451C26.9167 18.9944 27.203 19.4956 27.6041 19.8967C28.0052 20.2979 28.5065 20.5842 29.0558 20.7259L38.7932 23.2352C38.9606 23.2814 39.1083 23.3812 39.2135 23.5194C39.3188 23.6576 39.3758 23.8265 39.3758 24.0002C39.3758 24.1739 39.3188 24.3428 39.2135 24.481C39.1083 24.6192 38.9606 24.7191 38.7932 24.7653L29.0558 27.2746C28.5065 27.4163 28.0052 27.7026 27.6041 28.1037C27.203 28.5049 26.9167 29.0061 26.775 29.5554L24.264 39.2928C24.2174 39.4596 24.1174 39.6065 23.9794 39.7112C23.8414 39.8159 23.673 39.8725 23.4998 39.8725C23.3266 39.8725 23.1582 39.8159 23.0202 39.7112C22.8822 39.6065 22.7822 39.4596 22.7356 39.2928L20.2262 29.5554Z" fill="url(#paint0_linear_3311_686)"/>
<defs>
<linearGradient id="paint0_linear_3311_686" x1="23.5034" y1="8.12793" x2="23.5034" y2="39.8725" gradientUnits="userSpaceOnUse">
<stop stop-color="#673F69"/>
<stop offset="1" stop-color="#D74B76"/>
</linearGradient>
</defs>
</svg>
